<?xml version="1.0" encoding="utf-8"?>
<!-- Generator: Adobe Illustrator 15.0.0, SVG Export Plug-In . SVG Version: 6.00 Build 0)  -->
<!DOCTYPE svg PUBLIC "-//W3C//DTD SVG 1.1//EN" "http://www.w3.org/Graphics/SVG/1.1/DTD/svg11.dtd">
<svg version="1.1" id="Слой_1" xmlns="http://www.w3.org/2000/svg" xmlns:xlink="http://www.w3.org/1999/xlink" x="0px" y="0px"
	 width="221.031px" height="199.328px" viewBox="0 0 221.031 199.328" enable-background="new 0 0 221.031 199.328"
	 xml:space="preserve">
<path fill="#6C888C" d="M176.406,30.021c2.712,3.021,2.882,5.298,1.71,6.219c-1.172,0.919-3.172,0.223-5.727-2.618
	c-2.554-2.843-4.457-7.375-3.994-7.878C168.859,25.242,173.691,27.003,176.406,30.021"/>
<path fill="#6C888C" d="M177.346,37.97c3.29,1.528,4.438,3.668,3.926,5.17c-0.518,1.503-2.417,1.81-5.536,0.304
	c-3.118-1.507-6.247-4.918-6.09-5.617C169.802,37.128,174.053,36.444,177.346,37.97"/>
<path fill="#6C888C" d="M179.486,36.325c0.698,3.645,2.122,5.398,3.72,5.541c1.6,0.143,2.799-1.444,2.164-5.233
	c-0.637-3.79-4.063-8.266-4.825-8.264C179.781,28.37,178.783,32.68,179.486,36.325"/>
<path fill="#6C888C" d="M183.472,47.036c3.046,1.876,3.904,4.111,3.202,5.526c-0.704,1.416-2.627,1.497-5.509-0.344
	c-2.88-1.839-5.506-5.543-5.259-6.208C176.156,45.343,180.429,45.158,183.472,47.036"/>
<path fill="#6C888C" d="M185.8,45.668c0.21,3.655,1.39,5.543,2.951,5.869c1.561,0.327,2.952-1.095,2.82-4.888
	c-0.133-3.791-2.912-8.568-3.664-8.655C187.157,37.909,185.592,42.013,185.8,45.668"/>
<path fill="#484C55" d="M188.35,56.647c2.772,2.201,3.343,4.502,2.471,5.812c-0.874,1.312-2.789,1.164-5.413-0.986
	c-2.621-2.149-4.744-6.092-4.411-6.717C181.329,54.13,185.578,54.446,188.35,56.647"/>
<path fill="#484C55" d="M190.828,55.576c-0.26,3.616,0.672,5.615,2.178,6.12c1.509,0.505,3.059-0.733,3.405-4.479
	c0.348-3.746-1.78-8.762-2.513-8.934C193.167,48.11,191.087,51.958,190.828,55.576"/>
<path fill="#484C55" d="M191.974,66.681c2.475,2.498,2.761,4.837,1.733,6.026c-1.026,1.19-2.911,0.814-5.247-1.617
	c-2.338-2.43-3.947-6.564-3.541-7.139C185.328,63.373,189.496,64.183,191.974,66.681"/>
<path fill="#484C55" d="M194.563,65.919c-0.707,3.534-0.026,5.617,1.407,6.294c1.434,0.678,3.122-0.359,3.93-4.014
	c0.803-3.654-0.683-8.845-1.385-9.102C197.813,58.842,195.268,62.384,194.563,65.919"/>
<path fill="#484C55" d="M194.338,77.014c2.156,2.763,2.158,5.114,0.997,6.167c-1.163,1.057-2.991,0.458-5.017-2.226
	c-2.027-2.684-3.12-6.958-2.646-7.477C188.148,72.957,192.185,74.25,194.338,77.014"/>
<path fill="#484C55" d="M197,76.569c-1.127,3.409-0.703,5.552,0.64,6.394c1.339,0.843,3.139,0.017,4.38-3.501
	c1.24-3.518,0.399-8.821-0.268-9.158C201.085,69.968,198.13,73.16,197,76.569"/>
<path fill="#484C55" d="M195.444,87.524c1.809,2.997,1.529,5.328,0.251,6.236c-1.281,0.908-3.022,0.094-4.713-2.812
	c-1.69-2.907-2.266-7.267-1.73-7.727C189.785,82.763,193.635,84.524,195.444,87.524"/>
<path fill="#484C55" d="M198.142,87.403c-1.529,3.242-1.36,5.42-0.131,6.418c1.232,0.997,3.116,0.392,4.769-2.949
	c1.649-3.34,1.451-8.692,0.83-9.105C202.986,81.355,199.669,84.16,198.142,87.403"/>
<path fill="#6C888C" d="M195.286,98.085c1.437,3.196,0.883,5.483-0.496,6.232c-1.38,0.749-3.012-0.272-4.345-3.365
	c-1.329-3.094-1.378-7.493-0.794-7.884C190.237,92.678,193.849,94.888,195.286,98.085"/>
<path fill="#484C55" d="M197.977,98.288c-1.903,3.04-1.998,5.228-0.896,6.368c1.101,1.141,3.047,0.763,5.086-2.361
	c2.039-3.123,2.479-8.46,1.911-8.944C203.512,92.867,199.88,95.249,197.977,98.288"/>
<path fill="#6C888C" d="M193.788,108.947c1.027,3.362,0.187,5.576-1.276,6.151c-1.465,0.576-2.953-0.648-3.885-3.897
	c-0.931-3.248-0.433-7.633,0.196-7.949C189.453,102.937,192.762,105.584,193.788,108.947"/>
<path fill="#6C888C" d="M196.434,109.484c-2.271,2.79-2.642,4.96-1.693,6.236c0.951,1.276,2.93,1.14,5.346-1.721
	c2.418-2.861,3.52-8.119,3.016-8.672C202.603,104.776,198.704,106.695,196.434,109.484"/>
<path fill="#6C888C" d="M191.049,119.232c0.605,3.483-0.508,5.598-2.035,5.999c-1.528,0.4-2.849-1.001-3.371-4.363
	c-0.521-3.361,0.511-7.678,1.175-7.918C187.479,112.711,190.444,115.75,191.049,119.232"/>
<path fill="#6C888C" d="M193.611,120.087c-2.599,2.515-3.242,4.645-2.458,6.034c0.785,1.389,2.77,1.489,5.526-1.083
	c2.759-2.572,4.498-7.689,4.065-8.302C200.313,116.126,196.209,117.572,193.611,120.087"/>
<path fill="#6C888C" d="M187.037,129.196c0.158,3.56-1.226,5.55-2.798,5.771c-1.571,0.222-2.705-1.344-2.79-4.774
	c-0.082-3.432,1.489-7.63,2.178-7.791C184.314,122.241,186.882,125.635,187.037,129.196"/>
<path fill="#6C888C" d="M189.475,130.356c-2.903,2.209-3.819,4.269-3.222,5.757c0.598,1.485,2.566,1.822,5.641-0.429
	s5.449-7.166,5.098-7.829C196.639,127.192,192.38,128.148,189.475,130.356"/>
<path fill="#6C888C" d="M181.75,138.712c-0.313,3.595-1.965,5.43-3.565,5.47c-1.601,0.037-2.514-1.669-2.137-5.128
	c0.379-3.458,2.491-7.485,3.199-7.565C179.951,131.412,182.065,135.119,181.75,138.712"/>
<path fill="#6C888C" d="M184.025,140.167c-3.188,1.874-4.383,3.838-3.986,5.402c0.394,1.568,2.318,2.133,5.687,0.232
	c3.368-1.896,6.376-6.55,6.111-7.257C191.573,137.835,187.213,138.291,184.025,140.167"/>
<path fill="#6C888C" d="M175.186,147.657c-0.814,3.582-2.729,5.243-4.339,5.097c-1.608-0.149-2.279-1.978-1.415-5.418
	c0.864-3.437,3.526-7.24,4.242-7.236C174.39,140.102,175.998,144.077,175.186,147.657"/>
<path fill="#6C888C" d="M177.258,149.387c-3.447,1.516-4.923,3.357-4.749,4.98c0.174,1.624,2.022,2.416,5.662,0.894
	c3.639-1.521,7.28-5.847,7.111-6.588C185.115,147.93,180.703,147.873,177.258,149.387"/>
<path fill="#484C55" d="M46.746,27.902c3.021-2.713,5.298-2.881,6.219-1.71c0.921,1.171,0.224,3.172-2.618,5.726
	c-2.842,2.554-7.374,4.457-7.876,3.992C41.965,35.449,43.727,30.614,46.746,27.902"/>
<path fill="#484C55" d="M54.695,26.961c1.527-3.29,3.667-4.439,5.171-3.925c1.502,0.514,1.81,2.414,0.303,5.534
	c-1.505,3.118-4.917,6.247-5.617,6.092C53.853,34.504,53.169,30.253,54.695,26.961"/>
<path fill="#484C55" d="M53.051,24.822c3.645-0.699,5.398-2.123,5.542-3.721c0.141-1.599-1.446-2.8-5.235-2.164
	c-3.789,0.636-8.266,4.062-8.263,4.825C45.095,24.526,49.405,25.523,53.051,24.822"/>
<path fill="#484C55" d="M63.761,20.835c1.877-3.046,4.11-3.903,5.528-3.201c1.414,0.702,1.496,2.624-0.346,5.508
	c-1.838,2.882-5.541,5.506-6.208,5.26C62.068,28.153,61.883,23.878,63.761,20.835"/>
<path fill="#484C55" d="M62.395,18.506c3.655-0.208,5.543-1.388,5.869-2.95c0.327-1.562-1.096-2.952-4.89-2.819
	c-3.792,0.133-8.567,2.909-8.653,3.663C54.634,17.151,58.739,18.715,62.395,18.506"/>
<path fill="#484C55" d="M73.373,15.958c2.2-2.773,4.502-3.344,5.812-2.47c1.312,0.873,1.164,2.789-0.986,5.411
	c-2.15,2.622-6.094,4.743-6.719,4.411C70.855,22.979,71.172,18.729,73.373,15.958"/>
<path fill="#484C55" d="M72.301,13.48c3.617,0.259,5.614-0.673,6.119-2.18c0.505-1.507-0.732-3.058-4.478-3.406
	c-3.745-0.348-8.76,1.782-8.935,2.514C64.836,11.141,68.683,13.218,72.301,13.48"/>
<path fill="#484C55" d="M83.407,12.334c2.497-2.476,4.836-2.762,6.027-1.735c1.189,1.028,0.813,2.912-1.618,5.247
	c-2.431,2.337-6.564,3.947-7.14,3.54C80.099,18.979,80.909,14.81,83.407,12.334"/>
<path fill="#484C55" d="M82.645,9.745c3.533,0.706,5.616,0.024,6.293-1.41c0.678-1.432-0.359-3.121-4.013-3.925
	c-3.655-0.808-8.846,0.68-9.102,1.381C75.567,6.494,79.108,9.039,82.645,9.745"/>
<path fill="#484C55" d="M93.74,9.968c2.763-2.155,5.113-2.158,6.168-0.996c1.056,1.163,0.455,2.991-2.228,5.015
	c-2.685,2.027-6.958,3.121-7.478,2.648C89.681,16.159,90.975,12.123,93.74,9.968"/>
<path fill="#484C55" d="M93.295,7.307c3.408,1.127,5.552,0.702,6.394-0.64c0.843-1.34,0.017-3.141-3.5-4.381
	c-3.52-1.24-8.823-0.398-9.16,0.269C86.694,3.221,89.886,6.177,93.295,7.307"/>
<path fill="#484C55" d="M104.25,8.862c2.996-1.81,5.329-1.53,6.236-0.25c0.908,1.279,0.093,3.02-2.813,4.711
	c-2.906,1.692-7.267,2.265-7.725,1.732C99.49,14.521,101.251,10.671,104.25,8.862"/>
<path fill="#484C55" d="M104.128,6.166c3.243,1.528,5.421,1.36,6.417,0.13c0.998-1.232,0.394-3.116-2.946-4.768
	c-3.341-1.65-8.694-1.451-9.109-0.829C98.079,1.321,100.885,4.638,104.128,6.166"/>
<path fill="#484C55" d="M114.811,9.021c3.196-1.437,5.483-0.883,6.231,0.497c0.751,1.379-0.269,3.011-3.363,4.342
	c-3.094,1.331-7.495,1.379-7.886,0.795C109.403,14.069,111.614,10.458,114.811,9.021"/>
<path fill="#484C55" d="M115.014,6.329c3.038,1.904,5.227,1.999,6.369,0.896c1.141-1.102,0.762-3.046-2.361-5.085
	c-3.123-2.04-8.462-2.48-8.946-1.912C109.592,0.796,111.975,4.425,115.014,6.329"/>
<path fill="#484C55" d="M125.673,10.519c3.361-1.027,5.575-0.186,6.15,1.276c0.578,1.465-0.646,2.953-3.896,3.883
	c-3.249,0.932-7.634,0.435-7.949-0.194C119.662,14.854,122.311,11.545,125.673,10.519"/>
<path fill="#484C55" d="M126.211,7.873c2.788,2.271,4.96,2.642,6.235,1.692c1.275-0.949,1.14-2.93-1.72-5.346
	c-2.862-2.417-8.12-3.519-8.674-3.016C121.501,1.706,123.42,5.603,126.211,7.873"/>
<path fill="#484C55" d="M135.958,13.258c3.481-0.605,5.598,0.507,5.997,2.036c0.401,1.526-1.002,2.849-4.362,3.371
	c-3.362,0.518-7.677-0.511-7.916-1.175C129.437,16.828,132.476,13.862,135.958,13.258"/>
<path fill="#484C55" d="M136.812,10.696c2.516,2.6,4.646,3.241,6.034,2.458c1.389-0.785,1.489-2.771-1.083-5.527
	c-2.571-2.759-7.689-4.497-8.3-4.065C132.853,3.994,134.297,8.096,136.812,10.696"/>
<path fill="#484C55" d="M145.921,17.268c3.561-0.157,5.55,1.226,5.771,2.799c0.222,1.572-1.344,2.705-4.773,2.789
	c-3.434,0.084-7.63-1.488-7.792-2.175C138.966,19.993,142.36,17.425,145.921,17.268"/>
<path fill="#484C55" d="M147.082,14.831c2.209,2.905,4.269,3.821,5.756,3.223c1.486-0.599,1.821-2.565-0.429-5.641
	c-2.251-3.074-7.166-5.45-7.829-5.098C143.917,7.668,144.872,11.926,147.082,14.831"/>
<path fill="#484C55" d="M155.438,22.557c3.595,0.314,5.43,1.965,5.47,3.565c0.038,1.6-1.671,2.514-5.128,2.137
	c-3.457-0.377-7.485-2.492-7.565-3.199C148.136,24.355,151.841,22.241,155.438,22.557"/>
<path fill="#484C55" d="M156.892,20.281c1.875,3.188,3.838,4.382,5.402,3.987c1.567-0.396,2.132-2.318,0.233-5.688
	c-1.897-3.368-6.55-6.375-7.258-6.111C154.561,12.734,155.016,17.093,156.892,20.281"/>
<path fill="#6C888C" d="M164.384,29.122c3.581,0.813,5.242,2.728,5.095,4.338c-0.149,1.609-1.978,2.277-5.417,1.413
	c-3.438-0.862-7.24-3.524-7.236-4.24C156.828,29.916,160.803,28.308,164.384,29.122"/>
<path fill="#484C55" d="M166.113,27.049c1.515,3.446,3.355,4.923,4.978,4.749c1.624-0.174,2.417-2.023,0.896-5.663
	c-1.522-3.64-5.85-7.28-6.589-7.111C164.655,19.191,164.596,23.603,166.113,27.049"/>
<path fill="#484C55" d="M44.626,157.559c-2.713-3.021-2.881-5.297-1.709-6.217c1.17-0.92,3.172-0.224,5.728,2.616
	c2.552,2.845,4.456,7.375,3.991,7.879C52.173,162.34,47.339,160.578,44.626,157.559"/>
<path fill="#6C888C" d="M43.688,149.611c-3.291-1.528-4.44-3.668-3.927-5.169c0.516-1.503,2.417-1.811,5.536-0.304
	c3.118,1.506,6.246,4.918,6.09,5.616C51.229,150.452,46.979,151.137,43.688,149.611"/>
<path fill="#484C55" d="M41.546,151.257c-0.7-3.646-2.123-5.399-3.721-5.542c-1.597-0.144-2.8,1.444-2.163,5.233
	c0.637,3.789,4.062,8.265,4.825,8.264S42.249,154.902,41.546,151.257"/>
<path fill="#6C888C" d="M37.56,140.546c-3.045-1.878-3.903-4.111-3.201-5.526c0.703-1.416,2.626-1.498,5.508,0.343
	c2.882,1.841,5.506,5.543,5.26,6.209C44.876,142.238,40.604,142.423,37.56,140.546"/>
<path fill="#6C888C" d="M35.232,141.913c-0.209-3.656-1.39-5.543-2.951-5.869c-1.561-0.327-2.953,1.095-2.82,4.887
	c0.133,3.791,2.911,8.569,3.663,8.655C33.875,149.673,35.439,145.57,35.232,141.913"/>
<path fill="#6C888C" d="M32.683,130.935c-2.773-2.202-3.343-4.502-2.471-5.814c0.874-1.311,2.79-1.163,5.412,0.987
	c2.623,2.149,4.743,6.093,4.41,6.719C39.704,133.452,35.455,133.137,32.683,130.935"/>
<path fill="#6C888C" d="M30.207,132.005c0.259-3.616-0.675-5.614-2.181-6.119c-1.508-0.504-3.058,0.732-3.406,4.478
	s1.782,8.762,2.513,8.934C27.865,139.472,29.944,135.625,30.207,132.005"/>
<path fill="#6C888C" d="M29.062,120.899c-2.479-2.498-2.765-4.836-1.737-6.026c1.027-1.189,2.911-0.813,5.247,1.617
	c2.339,2.431,3.948,6.564,3.54,7.14C35.705,124.208,31.536,123.397,29.062,120.899"/>
<path fill="#6C888C" d="M26.47,121.662c0.706-3.534,0.025-5.617-1.408-6.293c-1.433-0.678-3.122,0.359-3.929,4.013
	c-0.806,3.655,0.683,8.845,1.384,9.102C23.219,128.739,25.764,125.197,26.47,121.662"/>
<path fill="#6C888C" d="M26.693,110.567c-2.155-2.763-2.157-5.113-0.996-6.167c1.163-1.056,2.991-0.458,5.017,2.227
	c2.025,2.684,3.119,6.957,2.644,7.478C32.883,114.625,28.847,113.331,26.693,110.567"/>
<path fill="#6C888C" d="M24.031,111.012c1.128-3.407,0.701-5.552-0.639-6.394c-1.34-0.843-3.139-0.017-4.38,3.5
	c-1.24,3.52-0.4,8.822,0.267,9.159C19.947,117.613,22.902,114.421,24.031,111.012"/>
<path fill="#6C888C" d="M25.588,100.057c-1.81-2.997-1.529-5.328-0.25-6.236c1.28-0.907,3.02-0.094,4.712,2.813
	c1.69,2.906,2.264,7.265,1.73,7.726C31.247,104.818,27.398,103.056,25.588,100.057"/>
<path fill="#484C55" d="M22.891,100.178c1.529-3.242,1.36-5.42,0.131-6.417c-1.232-0.998-3.117-0.393-4.769,2.948
	c-1.649,3.34-1.451,8.693-0.83,9.106C18.046,106.227,21.363,103.422,22.891,100.178"/>
<path fill="#484C55" d="M25.747,89.496c-1.437-3.196-0.884-5.483,0.494-6.233c1.381-0.748,3.011,0.273,4.345,3.365
	c1.33,3.095,1.379,7.494,0.794,7.885C30.794,94.905,27.184,92.692,25.747,89.496"/>
<path fill="#484C55" d="M23.055,89.293c1.904-3.038,1.999-5.227,0.897-6.367c-1.102-1.142-3.047-0.764-5.085,2.359
	c-2.04,3.123-2.481,8.462-1.913,8.946C17.52,94.715,21.151,92.331,23.055,89.293"/>
<path fill="#484C55" d="M27.245,78.634c-1.028-3.363-0.187-5.576,1.274-6.151c1.466-0.576,2.955,0.647,3.885,3.896
	c0.931,3.249,0.434,7.634-0.196,7.949C31.581,84.646,28.27,81.998,27.245,78.634"/>
<path fill="#484C55" d="M24.599,78.097c2.271-2.79,2.641-4.961,1.693-6.236c-0.952-1.276-2.931-1.141-5.347,1.72
	c-2.418,2.862-3.519,8.119-3.016,8.672C18.432,82.805,22.328,80.886,24.599,78.097"/>
<path fill="#484C55" d="M29.982,68.349c-0.604-3.484,0.508-5.597,2.036-5.998c1.527-0.402,2.852,1,3.371,4.361
	c0.52,3.362-0.512,7.679-1.174,7.918C33.552,74.87,30.588,71.831,29.982,68.349"/>
<path fill="#484C55" d="M27.42,67.494c2.602-2.515,3.242-4.644,2.459-6.034c-0.786-1.388-2.771-1.488-5.527,1.084
	c-2.758,2.572-4.497,7.688-4.066,8.302C20.72,71.456,24.821,70.01,27.42,67.494"/>
<path fill="#6C888C" d="M33.994,58.385c-0.157-3.56,1.226-5.55,2.798-5.771c1.571-0.221,2.706,1.344,2.79,4.775
	c0.083,3.432-1.488,7.63-2.177,7.79C36.719,65.339,34.15,61.946,33.994,58.385"/>
<path fill="#484C55" d="M31.557,57.226c2.904-2.21,3.822-4.27,3.223-5.757c-0.599-1.485-2.566-1.821-5.641,0.429
	c-3.076,2.25-5.449,7.166-5.099,7.83C24.394,60.391,28.652,59.435,31.557,57.226"/>
<path fill="#6C888C" d="M39.282,48.869c0.313-3.595,1.967-5.431,3.565-5.47c1.6-0.038,2.514,1.671,2.135,5.128
	c-0.377,3.458-2.49,7.484-3.195,7.564C41.08,56.17,38.966,52.463,39.282,48.869"/>
<path fill="#6C888C" d="M37.006,47.415c3.188-1.875,4.382-3.838,3.987-5.403c-0.394-1.566-2.318-2.131-5.687-0.231
	c-3.369,1.898-6.376,6.549-6.112,7.257C29.46,49.745,33.819,49.292,37.006,47.415"/>
<path fill="#6C888C" d="M45.848,39.924c0.813-3.582,2.728-5.243,4.338-5.096c1.608,0.149,2.278,1.978,1.414,5.417
	c-0.865,3.438-3.526,7.24-4.241,7.237C46.643,47.479,45.034,43.504,45.848,39.924"/>
<path fill="#6C888C" d="M43.774,38.195c3.446-1.515,4.923-3.357,4.749-4.98C48.35,31.59,46.501,30.8,42.86,32.32
	c-3.638,1.522-7.279,5.848-7.111,6.588C35.917,39.652,40.329,39.709,43.774,38.195"/>
<path fill="#484C55" d="M174.285,159.679c-3.021,2.713-5.299,2.883-6.218,1.711c-0.92-1.171-0.225-3.172,2.617-5.727
	c2.845-2.553,7.375-4.455,7.877-3.992C179.066,152.133,177.305,156.967,174.285,159.679"/>
<path fill="#484C55" d="M166.336,160.62c-1.527,3.291-3.667,4.439-5.168,3.925c-1.504-0.514-1.813-2.415-0.304-5.535
	c1.504-3.117,4.918-6.247,5.615-6.091C167.177,153.078,167.862,157.327,166.336,160.62"/>
<path fill="#484C55" d="M167.98,162.76c-3.644,0.699-5.397,2.122-5.539,3.721c-0.144,1.599,1.443,2.799,5.232,2.164
	c3.789-0.636,8.266-4.062,8.266-4.825C175.937,163.056,171.627,162.059,167.98,162.76"/>
<path fill="#484C55" d="M157.271,166.746c-1.878,3.047-4.111,3.903-5.527,3.202c-1.415-0.703-1.497-2.624,0.344-5.509
	c1.838-2.881,5.543-5.508,6.209-5.259C158.963,159.428,159.148,163.704,157.271,166.746"/>
<path fill="#484C55" d="M158.639,169.075c-3.656,0.209-5.544,1.389-5.87,2.951c-0.327,1.561,1.096,2.952,4.888,2.819
	c3.791-0.132,8.568-2.91,8.655-3.663C166.398,170.431,162.292,168.866,158.639,169.075"/>
<path fill="#484C55" d="M147.659,171.624c-2.2,2.772-4.502,3.345-5.813,2.471c-1.309-0.875-1.163-2.791,0.987-5.413
	c2.15-2.622,6.094-4.742,6.719-4.411C150.176,164.603,149.862,168.852,147.659,171.624"/>
<path fill="#484C55" d="M148.731,174.102c-3.617-0.259-5.615,0.672-6.12,2.18c-0.504,1.506,0.733,3.058,4.477,3.405
	c3.747,0.349,8.762-1.78,8.936-2.513C156.196,176.442,152.349,174.362,148.731,174.102"/>
<path fill="#484C55" d="M137.625,175.248c-2.498,2.476-4.836,2.762-6.027,1.734c-1.189-1.026-0.813-2.911,1.618-5.247
	c2.431-2.337,6.564-3.946,7.139-3.54C140.933,168.603,140.122,172.771,137.625,175.248"/>
<path fill="#484C55" d="M138.387,177.837c-3.533-0.707-5.616-0.024-6.293,1.409c-0.677,1.432,0.36,3.121,4.014,3.926
	c3.653,0.806,8.845-0.68,9.101-1.383C145.464,181.087,141.921,178.543,138.387,177.837"/>
<path fill="#484C55" d="M127.293,177.612c-2.765,2.156-5.114,2.158-6.169,0.997c-1.056-1.163-0.456-2.989,2.228-5.016
	c2.685-2.026,6.958-3.12,7.476-2.646C131.35,171.422,130.057,175.459,127.293,177.612"/>
<path fill="#484C55" d="M127.736,180.275c-3.408-1.128-5.552-0.704-6.394,0.64c-0.843,1.341-0.016,3.14,3.5,4.38
	c3.52,1.24,8.824,0.397,9.161-0.27C134.338,184.36,131.146,181.405,127.736,180.275"/>
<path fill="#6C888C" d="M116.782,178.719c-2.997,1.809-5.329,1.53-6.236,0.249c-0.909-1.278-0.093-3.019,2.813-4.71
	c2.906-1.692,7.267-2.266,7.725-1.732C121.545,173.06,119.78,176.91,116.782,178.719"/>
<path fill="#484C55" d="M116.904,181.415c-3.243-1.528-5.42-1.361-6.417-0.129c-0.998,1.231-0.394,3.116,2.947,4.767
	c3.34,1.651,8.694,1.452,9.107,0.83C122.952,186.261,120.147,182.945,116.904,181.415"/>
<path fill="#6C888C" d="M106.223,178.562c-3.197,1.436-5.484,0.882-6.233-0.498c-0.748-1.379,0.27-3.011,3.364-4.342
	c3.094-1.331,7.494-1.379,7.886-0.795C111.628,173.513,109.417,177.123,106.223,178.562"/>
<path fill="#484C55" d="M106.018,181.252c-3.038-1.905-5.228-1.998-6.367-0.896c-1.14,1.101-0.764,3.047,2.359,5.085
	c3.126,2.04,8.463,2.48,8.947,1.912C111.44,186.786,109.058,183.156,106.018,181.252"/>
<path fill="#484C55" d="M95.359,177.063c-3.361,1.026-5.575,0.185-6.151-1.276c-0.576-1.466,0.647-2.953,3.895-3.883
	c3.25-0.932,7.635-0.434,7.95,0.194C101.37,172.727,98.721,176.038,95.359,177.063"/>
<path fill="#484C55" d="M94.821,179.709c-2.789-2.271-4.961-2.643-6.235-1.693c-1.276,0.95-1.141,2.93,1.719,5.347
	c2.862,2.416,8.12,3.518,8.674,3.016C99.531,185.876,97.611,181.978,94.821,179.709"/>
<path fill="#484C55" d="M85.074,174.323c-3.482,0.605-5.598-0.507-5.997-2.035c-0.404-1.527,1.001-2.849,4.361-3.371
	c3.362-0.521,7.678,0.511,7.916,1.175C91.595,170.753,88.555,173.719,85.074,174.323"/>
<path fill="#484C55" d="M84.221,176.886c-2.517-2.6-4.646-3.241-6.036-2.458c-1.386,0.784-1.488,2.77,1.085,5.527
	c2.57,2.758,7.688,4.497,8.301,4.064C88.182,183.587,86.735,179.485,84.221,176.886"/>
<path fill="#484C55" d="M75.11,170.313c-3.561,0.157-5.55-1.226-5.771-2.797c-0.222-1.574,1.344-2.708,4.774-2.792
	c3.434-0.083,7.629,1.489,7.791,2.178C82.065,167.588,78.671,170.156,75.11,170.313"/>
<path fill="#484C55" d="M73.95,172.75c-2.209-2.905-4.27-3.82-5.757-3.223c-1.486,0.6-1.818,2.566,0.429,5.642
	c2.251,3.074,7.168,5.45,7.83,5.098C77.115,179.914,76.159,175.656,73.95,172.75"/>
<path fill="#484C55" d="M65.595,165.025c-3.594-0.315-5.43-1.966-5.469-3.566c-0.039-1.599,1.67-2.514,5.127-2.137
	s7.486,2.492,7.564,3.199C72.896,163.227,69.19,165.341,65.595,165.025"/>
<path fill="#484C55" d="M64.14,167.3c-1.874-3.189-3.838-4.382-5.402-3.986c-1.567,0.395-2.131,2.317-0.232,5.687
	c1.9,3.367,6.549,6.376,7.258,6.111C66.471,174.847,66.016,170.488,64.14,167.3"/>
<path fill="#484C55" d="M56.648,158.46c-3.581-0.814-5.241-2.729-5.095-4.338c0.149-1.609,1.977-2.279,5.416-1.415
	c3.439,0.863,7.241,3.525,7.238,4.242C64.206,157.665,60.229,159.273,56.648,158.46"/>
<path fill="#484C55" d="M54.919,160.532c-1.515-3.447-3.355-4.923-4.978-4.75c-1.625,0.174-2.416,2.023-0.896,5.665
	c1.522,3.638,5.849,7.277,6.589,7.11C56.376,168.389,56.434,163.978,54.919,160.532"/>
<polygon fill="#484C55" points="110.071,199.328 208.915,28.126 11.228,28.126 110.071,199.328 208.915,28.126 11.228,28.126 "/>
<polygon fill="#FFFFFF" points="110.071,188.97 199.203,32.862 20.941,32.862 110.071,188.97 199.203,32.862 20.941,32.862 "/>
<path fill="#6C888C" d="M190.729,122.276c0,0-4.995,0.105-12.487,0.264c-7.492,0.18-17.481,0.309-27.471,0.474
	c-4.994,0.095-9.989,0.22-14.671,0.255c-2.342-0.029-4.605-0.015-6.751-0.078c-2.146-0.044-4.175-0.104-6.048-0.177
	c-1.873-0.06-3.59-0.171-5.112-0.24s-2.849-0.146-3.941-0.232c-2.186-0.144-3.434-0.266-3.434-0.266v-0.211
	c0,0,1.248-0.122,3.434-0.266c1.092-0.086,2.419-0.163,3.941-0.232s3.239-0.18,5.112-0.24c1.873-0.073,3.902-0.133,6.048-0.177
	c2.146-0.062,4.409-0.049,6.751-0.078c4.682,0.035,9.677,0.16,14.671,0.255c9.99,0.165,19.979,0.294,27.471,0.474
	c7.492,0.159,12.487,0.264,12.487,0.264V122.276z"/>
<path fill="#6C888C" d="M187.102,95.805c0,0-4.716,1.736-11.79,4.339c-7.066,2.625-16.525,6.018-25.971,9.447
	c-4.72,1.725-9.429,3.479-13.871,5.046c-2.237,0.739-4.385,1.493-6.446,2.137c-2.055,0.661-4.005,1.269-5.81,1.814
	c-1.8,0.557-3.47,1.014-4.94,1.447c-1.469,0.433-2.756,0.795-3.823,1.071c-2.125,0.579-3.353,0.873-3.353,0.873l-0.068-0.199
	c0,0,1.148-0.524,3.179-1.376c1.011-0.439,2.247-0.947,3.672-1.511c1.425-0.563,3.022-1.231,4.783-1.901
	c1.758-0.682,3.669-1.403,5.695-2.148c2.021-0.762,4.178-1.49,6.395-2.285c4.465-1.5,9.256-3.018,14.037-4.565
	c9.555-3.114,19.097-6.265,26.281-8.548c7.177-2.304,11.962-3.84,11.962-3.84L187.102,95.805z"/>
<path fill="#484C55" d="M166.592,79.11c0,0-3.393,2.74-8.482,6.849c-5.075,4.128-11.911,9.541-18.724,14.984
	c-3.41,2.717-6.776,5.49-9.999,8.004c-1.638,1.221-3.196,2.436-4.72,3.527c-1.512,1.107-2.953,2.138-4.294,3.076
	c-5.349,3.77-9.092,6.055-9.092,6.055l-0.128-0.167c0,0,3.171-3.028,8.192-7.226c1.252-1.053,2.62-2.18,4.079-3.356
	c1.447-1.191,3.022-2.383,4.625-3.652c3.258-2.466,6.806-5.004,10.309-7.599c7.015-5.181,14.007-10.391,19.302-14.231
	c5.282-3.859,8.803-6.431,8.803-6.431L166.592,79.11z"/>
<path fill="#484C55" d="M158.318,52.664c0,0-2.849,4.343-7.122,10.856c-4.254,6.527-10.021,15.165-15.756,23.824
	c-2.857,4.337-5.69,8.69-8.414,12.725c-1.4,1.991-2.719,3.94-4.032,5.744c-1.298,1.816-2.54,3.522-3.701,5.087
	c-1.15,1.572-2.251,2.981-3.203,4.247s-1.794,2.36-2.508,3.248c-1.403,1.792-2.238,2.794-2.238,2.794l-0.173-0.119
	c0,0,0.633-1.139,1.799-3.094c0.571-0.986,1.287-2.167,2.124-3.511c0.838-1.344,1.756-2.88,2.807-4.519
	c1.041-1.648,2.185-3.421,3.41-5.286c1.209-1.876,2.551-3.809,3.903-5.833c2.781-3.996,5.82-8.208,8.834-12.437
	c6.009-8.472,11.986-16.965,16.539-23.287c4.534-6.335,7.557-10.558,7.557-10.558L158.318,52.664z"/>
<path fill="#484C55" d="M131.792,52.994c0,0-1.181,4.267-2.952,10.667c-1.749,6.407-4.19,14.916-6.595,23.437
	c-1.208,4.258-2.348,8.538-3.521,12.518c-0.629,1.977-1.196,3.9-1.807,5.703c-0.593,1.807-1.171,3.51-1.721,5.078
	c-2.18,6.277-3.91,10.377-3.911,10.377l-0.202-0.061c0,0,0.833-4.372,2.498-10.804c0.411-1.61,0.874-3.349,1.383-5.182
	c0.49-1.838,1.084-3.754,1.657-5.748c1.23-3.963,2.654-8.156,4.009-12.37c2.722-8.425,5.408-16.86,7.503-23.162
	c2.075-6.308,3.457-10.515,3.457-10.515L131.792,52.994z"/>
<path fill="#484C55" d="M111.104,35.699l0.264,13.235c0.18,7.941,0.309,18.529,0.474,29.117c0.095,5.294,0.22,10.588,0.255,15.551
	c-0.029,2.481-0.015,4.88-0.078,7.155c-0.044,2.275-0.104,4.425-0.177,6.411c-0.06,1.985-0.171,3.805-0.24,5.418
	c-0.069,1.613-0.146,3.019-0.232,4.177c-0.144,2.316-0.266,3.64-0.266,3.64h-0.211c0,0-0.122-1.324-0.266-3.64
	c-0.086-1.158-0.163-2.564-0.232-4.177c-0.069-1.613-0.18-3.433-0.24-5.418c-0.073-1.986-0.133-4.136-0.177-6.411
	c-0.062-2.275-0.049-4.674-0.078-7.155c0.035-4.963,0.16-10.257,0.255-15.551c0.165-10.588,0.294-21.176,0.474-29.117l0.264-13.235
	H111.104z"/>
<path fill="#484C55" d="M90.807,54.561c0,0,1.352,4.066,3.38,10.165c2.05,6.091,4.675,14.247,7.335,22.392
	c1.325,4.074,2.718,8.128,3.919,11.959c0.558,1.929,1.139,3.781,1.616,5.56c0.496,1.773,0.947,3.455,1.347,5.012
	c1.619,6.224,2.422,10.457,2.422,10.457l-0.203,0.062c0,0-1.699-3.96-3.834-10.026c-0.538-1.515-1.104-3.162-1.683-4.909
	c-0.598-1.742-1.152-3.602-1.766-5.514c-1.145-3.849-2.254-7.989-3.432-12.108c-2.344-8.241-4.724-16.472-6.427-22.67
	c-1.726-6.191-2.876-10.318-2.876-10.318L90.807,54.561z"/>
<path fill="#484C55" d="M63.5,51.391c0,0,3.023,4.223,7.557,10.558c4.553,6.322,10.53,14.815,16.539,23.287
	c3.014,4.229,6.053,8.442,8.834,12.437c1.352,2.024,2.694,3.957,3.903,5.833c1.226,1.865,2.369,3.638,3.41,5.286
	c1.051,1.64,1.969,3.175,2.807,4.519c0.837,1.344,1.554,2.525,2.124,3.511c1.166,1.955,1.8,3.094,1.8,3.094l-0.174,0.12
	c0,0-0.835-1.002-2.238-2.795c-0.713-0.888-1.556-1.982-2.508-3.247c-0.951-1.267-2.053-2.676-3.203-4.248
	c-1.161-1.565-2.403-3.271-3.701-5.086c-1.313-1.805-2.631-3.754-4.032-5.745c-2.723-4.035-5.556-8.388-8.414-12.725
	c-5.735-8.659-11.501-17.297-15.756-23.823c-4.273-6.514-7.122-10.857-7.122-10.857L63.5,51.391z"/>
<path fill="#484C55" d="M50.81,74.599c0,0,3.769,2.744,9.421,6.861c5.666,4.098,13.153,9.652,20.662,15.177
	c3.751,2.767,7.546,5.477,11.037,8.105c1.718,1.349,3.405,2.619,4.959,3.884c1.565,1.25,3.033,2.447,4.379,3.565
	c5.393,4.456,8.813,7.657,8.813,7.657l-0.128,0.168c0,0-3.989-2.456-9.709-6.483c-1.434-1.003-2.975-2.104-4.594-3.285
	c-1.63-1.165-3.299-2.458-5.053-3.76c-3.455-2.675-7.07-5.621-10.728-8.51c-7.308-5.788-14.639-11.546-20.086-15.931
	c-5.461-4.368-9.101-7.28-9.101-7.28L50.81,74.599z"/>
<path fill="#6C888C" d="M33.683,93.737c0,0,4.785,1.536,11.962,3.84c7.184,2.283,16.726,5.434,26.281,8.549
	c4.781,1.547,9.572,3.064,14.037,4.565c2.217,0.795,4.374,1.523,6.395,2.285c2.027,0.744,3.937,1.466,5.695,2.148
	c1.761,0.67,3.358,1.338,4.783,1.901c1.425,0.564,2.661,1.071,3.673,1.511c2.031,0.852,3.179,1.376,3.179,1.376l-0.068,0.199
	c0,0-1.228-0.294-3.353-0.874c-1.067-0.275-2.354-0.638-3.824-1.07c-1.47-0.433-3.139-0.891-4.94-1.448
	c-1.805-0.545-3.754-1.152-5.81-1.814c-2.061-0.643-4.209-1.397-6.446-2.137c-4.441-1.567-9.151-3.321-13.871-5.046
	c-9.446-3.428-18.905-6.821-25.972-9.446c-7.074-2.604-11.789-4.34-11.789-4.34L33.683,93.737z"/>
<path fill="#6C888C" d="M29.415,120.1c0,0,4.995-0.105,12.487-0.264c7.492-0.18,17.482-0.309,27.471-0.474
	c4.995-0.095,9.989-0.22,14.672-0.255c2.341,0.029,4.604,0.015,6.751,0.078c2.146,0.044,4.175,0.104,6.048,0.177
	c1.873,0.06,3.59,0.171,5.112,0.24c1.522,0.069,2.849,0.146,3.941,0.232c2.185,0.144,3.434,0.266,3.434,0.266v0.211
	c0,0-1.249,0.122-3.434,0.266c-1.092,0.086-2.419,0.163-3.941,0.232s-3.239,0.18-5.112,0.24c-1.873,0.073-3.902,0.133-6.048,0.177
	c-2.147,0.062-4.41,0.049-6.751,0.078c-4.683-0.035-9.677-0.16-14.672-0.255c-9.989-0.165-19.979-0.294-27.471-0.474
	c-7.492-0.159-12.487-0.264-12.487-0.264V120.1z"/>
<polygon fill="#484C55" points="221.031,150.876 170.544,150.876 170.544,98.732 221.031,98.732 211.83,125.224 "/>
<polygon fill="#484C55" points="0,150.876 50.488,150.876 50.488,98.732 0,98.732 9.201,125.224 "/>
<rect x="25.143" y="92.475" fill="#484C55" width="169.859" height="64.659"/>
<rect x="25.143" y="92.475" fill="none" stroke="#FFFFFF" stroke-width="2.399" stroke-miterlimit="10" width="169.859" height="64.659"/>
<text transform="matrix(1 0 0 1 40.1816 136.6865)" fill="#FFFFFF" font-family="'BebasNeue'" font-size="40">logotext</text>
<g>
	<defs>
		<polygon id="SVGID_1_" points="0,98.733 9.201,125.224 0,150.876 50.488,150.876 50.488,98.733 		"/>
	</defs>
	<clipPath id="SVGID_2_">
		<use xlink:href="#SVGID_1_"  overflow="visible"/>
	</clipPath>
	<polygon clip-path="url(#SVGID_2_)" fill="#FFFFFF" points="-7.313,103.518 17.276,104.69 -7.313,105.863 	"/>
	<polygon clip-path="url(#SVGID_2_)" fill="#FFFFFF" points="-7.313,107.958 17.276,109.129 -7.313,110.303 	"/>
	<polygon clip-path="url(#SVGID_2_)" fill="#FFFFFF" points="-7.313,112.398 17.276,113.57 -7.313,114.743 	"/>
	<polygon clip-path="url(#SVGID_2_)" fill="#FFFFFF" points="-7.313,116.837 17.276,118.009 -7.313,119.183 	"/>
	<polygon clip-path="url(#SVGID_2_)" fill="#FFFFFF" points="-7.313,121.278 17.276,122.45 -7.313,123.623 	"/>
	<polygon clip-path="url(#SVGID_2_)" fill="#FFFFFF" points="-7.313,125.718 17.276,126.89 -7.313,128.063 	"/>
	<polygon clip-path="url(#SVGID_2_)" fill="#FFFFFF" points="-7.313,130.158 17.276,131.33 -7.313,132.503 	"/>
	<polygon clip-path="url(#SVGID_2_)" fill="#FFFFFF" points="-7.313,134.599 17.276,135.771 -7.313,136.944 	"/>
	<polygon clip-path="url(#SVGID_2_)" fill="#FFFFFF" points="-7.313,139.038 17.276,140.21 -7.313,141.383 	"/>
</g>
<g>
	<defs>
		<polygon id="SVGID_3_" points="170.543,98.733 170.543,150.876 221.031,150.876 211.83,125.224 221.031,98.733 		"/>
	</defs>
	<clipPath id="SVGID_4_">
		<use xlink:href="#SVGID_3_"  overflow="visible"/>
	</clipPath>
	<polygon clip-path="url(#SVGID_4_)" fill="#FFFFFF" points="228.346,105.863 203.755,104.691 228.346,103.518 	"/>
	<polygon clip-path="url(#SVGID_4_)" fill="#FFFFFF" points="228.346,110.302 203.755,109.13 228.346,107.957 	"/>
	<polygon clip-path="url(#SVGID_4_)" fill="#FFFFFF" points="228.346,114.743 203.755,113.571 228.346,112.398 	"/>
	<polygon clip-path="url(#SVGID_4_)" fill="#FFFFFF" points="228.346,119.182 203.755,118.01 228.346,116.837 	"/>
	<polygon clip-path="url(#SVGID_4_)" fill="#FFFFFF" points="228.346,123.623 203.755,122.451 228.346,121.278 	"/>
	<polygon clip-path="url(#SVGID_4_)" fill="#FFFFFF" points="228.346,128.063 203.755,126.891 228.346,125.717 	"/>
	<polygon clip-path="url(#SVGID_4_)" fill="#FFFFFF" points="228.346,132.503 203.755,131.331 228.346,130.158 	"/>
	<polygon clip-path="url(#SVGID_4_)" fill="#FFFFFF" points="228.346,136.944 203.755,135.772 228.346,134.599 	"/>
	<polygon clip-path="url(#SVGID_4_)" fill="#FFFFFF" points="228.346,141.383 203.755,140.211 228.346,139.038 	"/>
</g>
</svg>
